<svg width="27.999999999999996" height="27.999999999999996" xmlns="http://www.w3.org/2000/svg">
 <!-- Created with SVG Editor - http://github.com/mzalive/SVG Editor/ -->

 <g>
  <title>background</title>
  <rect fill="none" id="canvas_background" height="30" width="30" y="-1" x="-1"/>
  <g display="none" overflow="visible" y="0" x="0" height="100%" width="100%" id="canvasGrid">
   <rect fill="url(#gridpattern)" stroke-width="0" y="0" x="0" height="100%" width="100%"/>
  </g>
 </g>
 <g>
  <title>Layer 1</title>
  <g stroke="null" id="svg_11">
   <g stroke="null" id="svg_14" transform="matrix(0.08786012894431239,0,0,0.0699075330631815,0.3589772658804258,29.68381964943149) ">
    <g stroke="null" id="svg_13">
     <path stroke="#FFFFFF" fill-rule="nonzero" fill="#DD9" d="m47.576854,-229.518126c2.8215,7.0665 5.93174,14.03925 9.26175,20.92501l0,0l-18.45675,10.641l0,0l-11.373,-19.70324l0,0l20.568,-11.86277zm206.5215,-0.042l0,0l0,0l20.655,11.90475l0,0l-11.37225,19.70325l0,0l-18.61426,-10.74899l0,0l0,0c3.35324,-6.8685 6.46426,-13.79551 9.33151,-20.85901zm33.24975,-57.83774l0,0l0,0l0,0l0,0l0,22.74299l0,0l0,0l0,0l-23.94225,0l0,0l0,0c0.44101,-3.7755 1.19775,-7.50825 1.19775,-11.373l0,0l0,0c0,-3.90974 -0.75674,-7.57275 -1.155,-11.37074l0,0l0,0l0,0l23.8995,0l0,0.00075zm-248.9895,22.74374l0,0l0,0l0,0l0,0l-23.94375,0l0,0l0,0l0,0l0,-22.74299l0,0l0,0l0,0l23.90025,0l0,0l0,0c-0.399,3.79725 -1.155,7.46099 -1.155,11.37075l0,0l0,0c0,3.86399 0.756,7.59674 1.1985,11.37224zm178.77676,-103.41525c-6.12975,-4.42125 -12.68175,-8.26424 -19.63051,-11.41948l0,0l11.77125,-20.41202l0,0l19.6785,11.3745l0,0l-11.81924,20.457zm37.22926,45.44252c-3.1575,-6.97427 -7.01776,-13.50378 -11.45999,-19.65452l0,0l20.47723,-11.8395l0,0l11.37224,19.72424l0,0l-20.38948,11.76978zm-169.74077,-45.42152l0,0l0,0l-11.8365,-20.47875l0,0l19.72275,-11.37451l0,0l11.77275,20.41202l0,0l0,0c-6.97575,3.156 -13.50375,6.99899 -19.659,11.44124zm66.25725,-21.69976c-3.90825,0 -7.5735,0.75601 -11.373,1.155l0,0l0,0l0,0l0,-23.90024l0,0l0,0l0,0l22.74525,0l0,0l0,0l0,0l0,23.90024l0,0l0,0c-3.79725,-0.39974 -7.46249,-1.155 -11.37225,-1.155zm-112.5,35.62802l0,0l0,0l20.47875,11.83574l0,0l0,0c-4.4415,6.15374 -8.28375,12.68325 -11.4375,19.65752l0,0l-20.41425,-11.7735l0,0l11.373,-19.71976zm157.98675,237.30448c0,6.28726 -5.082,11.36926 -11.3685,11.36926l0,0l0,0l0,0l-68.235,0l0,0l0,0c-6.285,0 -11.37074,-5.082 -11.37074,-11.36926l0,0l0,0c0,-6.2865 5.08575,-11.37226 11.37076,-11.37226l0,0l0,0l0,0l68.235,0l0,0l0,0c6.28648,0.00003 11.36848,5.08579 11.36848,11.37226zm0,34.11749c0,6.28351 -5.082,11.36926 -11.3685,11.36926l0,0l0,0l0,0l-2.08949,0l0,0l0,0c-4.68375,13.23749 -17.19374,22.74451 -32.028,22.74451l0,0l0,0c-14.838,0 -27.34274,-9.50699 -32.02951,-22.74451l0,0l0,0l0,0l-2.088,0l0,0l0,0c-6.285,0 -11.37074,-5.08575 -11.37074,-11.36926l0,0l0,0c0,-6.2865 5.08575,-11.37601 11.37076,-11.37601l0,0l0,0l0,0l68.235,0l0,0l0,0c6.28648,0.00003 11.36848,5.08954 11.36848,11.37601zm2.55524,-135.82648c-9.06226,18.01575 -18.32475,36.498 -22.69949,56.21926l0,0l0,0l0,0l-50.79676,0l0,0l0,0c-4.3755,-19.12276 -13.43774,-37.314 -22.3005,-55.08451l0,0l0,0c-10.52925,-21.1665 -20.47876,-41.15625 -20.47876,-58.63725l0,0l0,0c0,-37.62525 30.60901,-68.23349 68.2335,-68.23349l0,0l0,0c37.6245,0 68.23424,30.60824 68.23424,68.23349l0,0l0,0c0.00078,17.2815 -9.82122,36.82725 -20.19223,57.5025zm-48.04199,-148.4805c-50.24175,0 -90.9765,40.73625 -90.9765,90.978l0,0l0,0c0,45.48825 45.48825,91.6875 45.48825,136.46326l0,0l0,0l0,0l90.975,0l0,0l0,0c0,-46.19699 45.48975,-90.97501 45.48975,-136.46326l0,0l0,0c0,-50.24175 -40.73251,-90.978 -90.9765,-90.978z" id="svg_12"/>
    </g>
   </g>
  </g>
 </g>
</svg>
